<svg width="1600" height="1000" viewBox="0 0 1600 1000" xmlns="http://www.w3.org/2000/svg">
  <defs>
    <linearGradient id="bg" x1="0" y1="0" x2="1" y2="1">
      <stop offset="0%" stop-color="#ecfdf3"/>
      <stop offset="50%" stop-color="#e8f7ef"/>
      <stop offset="100%" stop-color="#f8fafc"/>
    </linearGradient>
    <linearGradient id="accent" x1="0" y1="0" x2="1" y2="1">
      <stop offset="0%" stop-color="#0f8a46"/>
      <stop offset="100%" stop-color="#065f2f"/>
    </linearGradient>
  </defs>
  <rect width="1600" height="1000" fill="url(#bg)"/>
  <circle cx="1320" cy="140" r="280" fill="#d9fbe8" opacity="0.8"/>
  <circle cx="210" cy="820" r="300" fill="#dcfce7" opacity="0.85"/>
  <path d="M0 740 C260 620, 420 900, 750 810 C980 750, 1220 620, 1600 730 L1600 1000 L0 1000 Z" fill="#d1fae5" opacity="0.7"/>

  <g transform="translate(100,120)" opacity="0.18">
    <circle cx="68" cy="68" r="56" fill="none" stroke="url(#accent)" stroke-width="10"/>
    <path d="M24 104 C44 124, 98 124, 118 94" fill="none" stroke="#d89f0f" stroke-width="10" stroke-linecap="round"/>
    <path d="M52 92 C44 66, 58 44, 84 34 C80 54, 80 75, 72 98 Z" fill="url(#accent)"/>
  </g>
  <text x="220" y="230" font-family="Outfit, Segoe UI, Arial, sans-serif" font-size="84" font-weight="800" fill="#0a7a3e" opacity="0.2">CAE</text>
  <text x="400" y="230" font-family="Outfit, Segoe UI, Arial, sans-serif" font-size="84" font-style="italic" font-weight="700" fill="#d8a51b" opacity="0.2">Groups</text>
</svg>
