<svg width="620" height="160" viewBox="0 0 620 160" xmlns="http://www.w3.org/2000/svg" role="img" aria-label="CAE Groups logo">
  <defs>
    <linearGradient id="g1" x1="0" y1="0" x2="1" y2="1">
      <stop offset="0%" stop-color="#0f8a46"/>
      <stop offset="100%" stop-color="#065f2f"/>
    </linearGradient>
    <linearGradient id="g2" x1="0" y1="0" x2="1" y2="1">
      <stop offset="0%" stop-color="#f2c94c"/>
      <stop offset="100%" stop-color="#d89f0f"/>
    </linearGradient>
  </defs>

  <g transform="translate(8,8)">
    <circle cx="68" cy="68" r="56" fill="none" stroke="url(#g1)" stroke-width="10"/>
    <path d="M24 104 C44 124, 98 124, 118 94" fill="none" stroke="url(#g2)" stroke-width="10" stroke-linecap="round"/>
    <path d="M52 92 C44 66, 58 44, 84 34 C80 54, 80 75, 72 98 Z" fill="url(#g1)"/>
    <path d="M56 90 C56 76, 62 64, 74 52" fill="none" stroke="#0a4f29" stroke-width="3" stroke-linecap="round"/>
    <path d="M66 95 C66 77, 76 62, 92 48" fill="none" stroke="#0a4f29" stroke-width="3" stroke-linecap="round"/>
    <rect x="92" y="70" width="9" height="20" rx="2" fill="url(#g2)"/>
    <rect x="104" y="60" width="9" height="30" rx="2" fill="url(#g2)"/>
    <rect x="116" y="50" width="9" height="40" rx="2" fill="url(#g2)"/>
  </g>

  <text x="150" y="96" font-family="Outfit, Segoe UI, Arial, sans-serif" font-size="76" font-weight="800" fill="#0a7a3e">CAE</text>
  <text x="315" y="96" font-family="Outfit, Segoe UI, Arial, sans-serif" font-size="76" font-style="italic" font-weight="700" fill="#d8a51b">Groups</text>
</svg>
